<?xml version="1.0" encoding="utf-8"?>
<!-- Svg Vector Icons : http://www.onlinewebfonts.com/icon -->
<!DOCTYPE svg PUBLIC "-//W3C//DTD SVG 1.1//EN" "http://www.w3.org/Graphics/SVG/1.1/DTD/svg11.dtd">
<svg version="1.1" xmlns="http://www.w3.org/2000/svg" xmlns:xlink="http://www.w3.org/1999/xlink" x="0px" y="0px" viewBox="0 0 1000 1000" enable-background="new 0 0 1000 1000" xml:space="preserve">
<metadata> Svg Vector Icons : http://www.onlinewebfonts.com/icon </metadata>
<g><path d="M563.6,500L976.9,86.8c17.5-17.5,17.5-46,0-63.6c-17.5-17.5-46-17.5-63.6,0L500,436.4L86.8,23.1c-17.5-17.5-46-17.5-63.6,0c-17.5,17.5-17.5,46,0,63.6L436.4,500L23.1,913.2c-17.5,17.5-17.5,46,0,63.6c17.5,17.5,46,17.5,63.6,0L500,563.6l413.2,413.2c17.5,17.5,46,17.5,63.6,0c17.5-17.5,17.5-46,0-63.6L563.6,500z"/></g>
</svg>